<?xml version="1.0" encoding="utf-8"?>
<!-- Generator: Adobe Illustrator 13.0.0, SVG Export Plug-In . SVG Version: 6.00 Build 14948)  -->
<!DOCTYPE svg PUBLIC "-//W3C//DTD SVG 1.1//EN" "http://www.w3.org/Graphics/SVG/1.1/DTD/svg11.dtd">
<svg version="1.1" id="Capa_1" xmlns="http://www.w3.org/2000/svg" xmlns:xlink="http://www.w3.org/1999/xlink" x="0px" y="0px"
	 width="33px" height="25px" viewBox="29 19.5 33 25" enable-background="new 29 19.5 33 25" xml:space="preserve">
<g>
	<g>
		<g id="XMLID_1_">
			<g>
				<ellipse fill="#FFFFFF" cx="60.476" cy="29.049" rx="1.124" ry="1.043"/>
				<path fill="#FFFFFF" d="M53.933,23.086c0.922,0,1.666,0.695,1.666,1.549c0,0.855-0.744,1.55-1.666,1.55
					c-0.924,0-1.669-0.695-1.669-1.55C52.264,23.781,53.009,23.086,53.933,23.086z"/>
				<path fill="#FFFFFF" d="M45.616,20.531c1.107,0,2.005,0.833,2.005,1.857c0,1.028-0.897,1.861-2.005,1.861
					c-1.104,0-2.001-0.833-2.001-1.861C43.615,21.364,44.513,20.531,45.616,20.531z"/>
				<path fill="#FFFFFF" d="M45.691,41.771c4.108-0.013,6.82-0.456,8.019-0.836c-1.199-0.38-3.911-0.824-8.019-0.836h-0.01
					c-0.023,0-0.044,0-0.064,0c-0.02,0-0.044,0-0.064,0h-0.01c-4.107,0.013-6.82,0.456-8.019,0.836
					c1.199,0.38,3.911,0.823,8.019,0.836h0.007c0.023,0,0.044,0,0.067,0c0.024,0,0.048,0,0.071,0H45.691z M59.158,30.205
					c0.227,0.214,0.257,0.547,0.067,0.792c-3.81,4.523-3.092,9.715-3.092,9.715c0.014,0.073,0.021,0.145,0.021,0.224
					c0,1.272-1.923,1.779-3.6,2.077c-0.921,0.164-1.991,0.292-3.156,0.38c-1.161,0.088-2.417,0.135-3.708,0.138
					c-0.024,0-0.047,0-0.075,0c-0.023,0-0.047,0-0.074,0c-2.584-0.006-5.015-0.191-6.861-0.519
					c-1.676-0.298-3.599-0.801-3.599-2.077c0-0.079,0.006-0.151,0.02-0.224c0,0,0.718-5.192-3.095-9.715
					c-0.187-0.245-0.156-0.578,0.071-0.792c0.23-0.213,0.589-0.242,0.854-0.066c1.666,1.109,4.006,2.583,5.059,2.583
					c0.21,0,0.277-0.057,0.325-0.113c0.433-0.494,0.314-2.219-0.346-5.133c-0.068-0.289,0.098-0.578,0.39-0.694
					c0.291-0.113,0.63-0.019,0.806,0.223c2.276,3.149,3.319,3.813,3.792,3.813c0.667,0,1.352-1.792,2.025-5.318
					c0.057-0.283,0.312-0.487,0.616-0.503v-0.006c0.003,0,0.01,0.003,0.017,0.003c0.007,0,0.014-0.003,0.021-0.003v0.006
					c0.305,0.016,0.559,0.22,0.613,0.503c0.677,3.526,1.358,5.318,2.029,5.318c0.471,0,1.514-0.66,3.789-3.813
					c0.176-0.242,0.515-0.336,0.806-0.223c0.295,0.116,0.457,0.405,0.393,0.694c-0.663,2.914-0.778,4.639-0.349,5.133
					c0.051,0.056,0.115,0.113,0.325,0.113c1.057,0,3.393-1.474,5.06-2.583C58.565,29.963,58.928,29.995,59.158,30.205z"/>
				<ellipse fill="#FFFFFF" cx="37.165" cy="24.636" rx="1.669" ry="1.55"/>
				<ellipse fill="#FFFFFF" cx="30.724" cy="29.049" rx="1.124" ry="1.043"/>
			</g>
			<g>
			</g>
		</g>
	</g>
</g>
</svg>
